Coordinates
version=1
nRows=31
nColumns=38
inDegrees=no

Units are S.I. units (second, meters, Newtons, ...)
If the header above contains a line with 'inDegrees', this indicates whether rotational values are in degrees (yes) or radians (no).

endheader
time	pelvis_tilt	pelvis_list	pelvis_rotation	pelvis_tx	pelvis_ty	pelvis_tz	hip_flexion_r	hip_adduction_r	hip_rotation_r	knee_angle_r	ankle_angle_r	subtalar_angle_r	mtp_angle_r	hip_flexion_l	hip_adduction_l	hip_rotation_l	knee_angle_l	ankle_angle_l	subtalar_angle_l	mtp_angle_l	lumbar_extension	lumbar_bending	lumbar_rotation	arm_flex_r	arm_add_r	arm_rot_r	elbow_flex_r	pro_sup_r	wrist_flex_r	wrist_dev_r	arm_flex_l	arm_add_l	arm_rot_l	elbow_flex_l	pro_sup_l	wrist_flex_l	wrist_dev_l
1.91	2.85189	1.3442	-1.06426	0.751129	1.37692	0.912935	0.0684776	0.0483148	-0.107092	0	-0.343686	0	0	-0.357521	-0.128319	-0.0677095	0.558831	0.0230006	0	0	-0.129033	0.155727	0.0924288	-0.26211	-0.949899	-0.0462213	1.65531	0.374563	0	0	0.599902	-0.473527	0.766585	1.14943	0.614562	0	0
1.92	2.84263	1.34311	-1.05323	0.751859	1.38736	0.912789	0.0640188	0.0547601	-0.105637	0	-0.38407	0	0	-0.355062	-0.135355	-0.0615884	0.584725	0.0160003	0	0	-0.126538	0.15941	0.0904288	-0.263179	-0.950406	-0.0451187	1.65533	0.376807	0	0	0.595687	-0.4737	0.764964	1.14943	0.616187	0	0
1.93	2.83378	1.3418	-1.04378	0.752922	1.39802	0.91284	0.0590236	0.0618041	-0.102081	0	-0.418054	0	0	-0.351716	-0.142411	-0.0533814	0.61161	0.00738207	0	0	-0.124102	0.162272	0.0894849	-0.26347	-0.950063	-0.0427253	1.6538	0.38367	0	0	0.591853	-0.47501	0.76483	1.14979	0.616956	0	0
1.94	2.82254	1.34055	-1.03306	0.754083	1.40876	0.91306	0.0548928	0.0693117	-0.0944742	0	-0.452262	0	0	-0.346024	-0.149384	-0.0424293	0.641882	-0.00434978	0	0	-0.121374	0.165631	0.0891519	-0.263734	-0.948894	-0.0403689	1.6527	0.390465	0	0	0.58714	-0.476736	0.764321	1.15051	0.616487	0	0
1.95	2.81134	1.33906	-1.0237	0.755289	1.41952	0.913497	0.0520176	0.0765866	-0.0863128	0.0048528	-0.477685	0	0	-0.338264	-0.155703	-0.0291737	0.676336	-0.0184362	0	0	-0.119101	0.169292	0.0899945	-0.264505	-0.947534	-0.0385376	1.65218	0.39411	0	0	0.581911	-0.478306	0.763276	1.15128	0.615492	0	0
1.96	2.80267	1.33633	-1.01826	0.756541	1.43027	0.914188	0.0496378	0.0831764	-0.0828767	0.0241375	-0.49282	0	0	-0.329065	-0.161623	-0.0156776	0.715653	-0.0365059	0	0	-0.118487	0.173098	0.0924717	-0.265824	-0.946836	-0.0370992	1.65202	0.395709	0	0	0.576836	-0.479489	0.761997	1.15212	0.614481	0	0
1.97	2.79669	1.3324	-1.01655	0.75792	1.44107	0.9151	0.0438667	0.0896007	-0.0833336	0.0419872	-0.498343	0	0	-0.317996	-0.167876	-0.00322718	0.76039	-0.0618169	0	0	-0.119253	0.176709	0.0963991	-0.267682	-0.946583	-0.0356896	1.65197	0.396009	0	0	0.572404	-0.480392	0.761205	1.15279	0.613552	0	0
1.98	2.79514	1.32677	-1.02027	0.759361	1.45178	0.916196	0.0326872	0.0960604	-0.0862909	0.0539078	-0.496718	0	0	-0.306184	-0.174288	0.00803072	0.809723	-0.0910031	0	0	-0.122606	0.180273	0.101677	-0.269673	-0.946867	-0.034797	1.65259	0.395943	0	0	0.569059	-0.481371	0.761033	1.15368	0.612736	0	0
1.99	2.79703	1.31977	-1.02844	0.760876	1.46234	0.917383	0.0173358	0.102734	-0.0914627	0.0604826	-0.492749	0	0	-0.293504	-0.180728	0.0175976	0.862671	-0.123497	0	0	-0.12834	0.183663	0.10836	-0.271708	-0.947878	-0.0345086	1.65382	0.395272	0	0	0.566992	-0.482467	0.761547	1.15484	0.612011	0	0
2	2.80153	1.31227	-1.04008	0.762504	1.47274	0.918542	0.000107473	0.109271	-0.0969588	0.064079	-0.487384	0	0	-0.278769	-0.187039	0.0245208	0.918639	-0.15871	0	0	-0.135473	0.18615	0.116383	-0.273912	-0.94959	-0.0344181	1.65534	0.393368	0	0	0.566312	-0.483623	0.762874	1.15625	0.610561	0	0
2.01	2.80834	1.30478	-1.05446	0.764189	1.4829	0.919606	-0.0173816	0.115248	-0.101417	0.0673581	-0.479965	0	0	-0.261256	-0.192743	0.0291198	0.976968	-0.196284	0	0	-0.143854	0.18771	0.125428	-0.277184	-0.951561	-0.0360845	1.65799	0.390427	0	0	0.567279	-0.485009	0.765293	1.15816	0.607663	0	0
2.02	2.81624	1.29706	-1.0699	0.765847	1.4927	0.920559	-0.0343501	0.120747	-0.105582	0.0727347	-0.468041	0	0	-0.241221	-0.19778	0.0320099	1.03612	-0.23488	0	0	-0.153697	0.188848	0.135499	-0.282358	-0.9534	-0.0410084	1.66178	0.386372	0	0	0.570572	-0.486241	0.769683	1.16036	0.603097	0	0
2.03	2.82287	1.28963	-1.08341	0.767343	1.50216	0.921435	-0.0505398	0.12582	-0.109983	0.0790782	-0.455683	0	0	-0.218915	-0.201876	0.0358756	1.09494	-0.263691	0	0	-0.163519	0.190023	0.145428	-0.287777	-0.955615	-0.0467157	1.66533	0.383637	0	0	0.57493	-0.486606	0.774362	1.16202	0.599282	0	0
2.04	2.82889	1.2822	-1.09505	0.768637	1.51128	0.922384	-0.066642	0.130467	-0.115275	0.0863055	-0.440906	0	0	-0.195698	-0.205686	0.0405138	1.15172	-0.288087	0	0	-0.173727	0.191371	0.155114	-0.294849	-0.958158	-0.0543731	1.6694	0.38119	0	0	0.580715	-0.485834	0.780066	1.16284	0.595625	0	0
2.05	2.83434	1.27456	-1.10471	0.769771	1.52015	0.9235	-0.0840113	0.135142	-0.118746	0.091282	-0.425846	0	0	-0.172451	-0.209116	0.0469262	1.20597	-0.309097	0	0	-0.184102	0.192871	0.163932	-0.302232	-0.959757	-0.0632141	1.67287	0.378412	0	0	0.587223	-0.484103	0.786091	1.16258	0.592089	0	0
2.06	2.84189	1.2672	-1.11497	0.770739	1.52886	0.924819	-0.103124	0.13917	-0.119088	0.0922201	-0.414222	0	0	-0.148853	-0.210203	0.0558236	1.25794	-0.325047	0	0	-0.194216	0.193557	0.17082	-0.307551	-0.960197	-0.0704027	1.6748	0.376612	0	0	0.593231	-0.482135	0.791269	1.16158	0.589198	0	0
2.07	2.85319	1.26013	-1.12778	0.771613	1.53744	0.926344	-0.124217	0.142225	-0.11652	0.0893053	-0.403875	0	0	-0.12519	-0.208778	0.0646146	1.30697	-0.332308	0	0	-0.204392	0.192793	0.176221	-0.311315	-0.95952	-0.0763878	1.67556	0.375866	0	0	0.599241	-0.480354	0.796514	1.16005	0.586108	0	0
2.08	2.86703	1.25369	-1.14256	0.772495	1.54595	0.928019	-0.1466	0.144459	-0.111919	0.0827973	-0.395695	0	0	-0.101837	-0.205444	0.0726008	1.35183	-0.324266	0	0	-0.214027	0.19067	0.180495	-0.313241	-0.957813	-0.0805916	1.67531	0.375737	0	0	0.604906	-0.479041	0.801671	1.15818	0.583099	0	0
2.09	2.8819	1.24817	-1.15878	0.773416	1.5544	0.929794	-0.169321	0.145762	-0.106207	0.0738573	-0.389828	0	0	-0.0790126	-0.200184	0.0803234	1.39205	-0.303109	0	0	-0.222792	0.187289	0.184317	-0.31353	-0.955321	-0.0832421	1.67424	0.376348	0	0	0.609722	-0.478222	0.806357	1.15635	0.580029	0	0
2.1	2.89754	1.24333	-1.17646	0.774392	1.5628	0.931626	-0.19206	0.146181	-0.101641	0.06387	-0.38599	0	0	-0.057023	-0.193581	0.0861325	1.42712	-0.276291	0	0	-0.230873	0.183034	0.187921	-0.31221	-0.952255	-0.084437	1.67269	0.377337	0	0	0.613761	-0.477852	0.810421	1.15437	0.57732	0	0
2.11	2.91237	1.23991	-1.1942	0.775386	1.57122	0.933407	-0.213564	0.14568	-0.0988153	0.0530316	-0.383939	0	0	-0.0346551	-0.185831	0.0895775	1.45662	-0.251555	0	0	-0.237477	0.178206	0.191822	-0.31062	-0.949237	-0.0849804	1.67086	0.378768	0	0	0.616969	-0.477845	0.814066	1.15271	0.57502	0	0
2.12	2.92587	1.23788	-1.21136	0.776488	1.57969	0.935094	-0.233661	0.144713	-0.0975314	0.0415667	-0.383299	0	0	-0.0114583	-0.177768	0.0909433	1.48017	-0.233152	0	0	-0.242183	0.172918	0.195764	-0.308229	-0.94567	-0.0844501	1.66853	0.380516	0	0	0.619322	-0.478226	0.81728	1.15098	0.572866	0	0
2.13	2.93826	1.23665	-1.22824	0.777628	1.58815	0.936672	-0.252745	0.143344	-0.0968698	0.029906	-0.383624	0	0	0.0125813	-0.169885	0.089935	1.49775	-0.222091	0	0	-0.245863	0.167392	0.200207	-0.305834	-0.942274	-0.0835523	1.66626	0.382601	0	0	0.621146	-0.478794	0.819985	1.14937	0.570974	0	0
2.14	2.95124	1.23556	-1.24634	0.778823	1.59656	0.938181	-0.271715	0.141291	-0.0966463	0.0178825	-0.38474	0	0	0.0355326	-0.162333	0.0869562	1.50867	-0.215644	0	0	-0.249587	0.161256	0.205254	-0.303811	-0.939078	-0.0827584	1.66451	0.384807	0	0	0.622822	-0.479594	0.822288	1.14832	0.569337	0	0
2.15	2.96376	1.23486	-1.26525	0.78003	1.60502	0.939583	-0.290038	0.138465	-0.0962328	0.00605168	-0.38669	0	0	0.0568894	-0.155322	0.0811164	1.51354	-0.209764	0	0	-0.252719	0.155015	0.211232	-0.302049	-0.935984	-0.0820785	1.66297	0.385433	0	0	0.623656	-0.480562	0.823814	1.14786	0.567853	0	0
2.16	2.97474	1.23455	-1.28361	0.781264	1.61347	0.940777	-0.306411	0.13544	-0.097339	0	-0.387317	0	0	0.0772978	-0.149058	0.0732921	1.51344	-0.204197	0	0	-0.255316	0.149047	0.217788	-0.299895	-0.933899	-0.0805718	1.66169	0.385819	0	0	0.623575	-0.481762	0.823963	1.1482	0.566926	0	0
2.17	2.98426	1.23444	-1.30173	0.782582	1.62186	0.941735	-0.320738	0.132318	-0.0991602	0	-0.385521	0	0	0.0966846	-0.144035	0.0626478	1.5085	-0.195604	0	0	-0.257751	0.142951	0.225816	-0.298614	-0.932024	-0.0801393	1.66078	0.386591	0	0	0.623893	-0.483008	0.82448	1.14926	0.565505	0	0
2.18	2.99202	1.23457	-1.31887	0.783931	1.63025	0.942495	-0.334131	0.129355	-0.100465	0	-0.380752	0	0	0.114897	-0.140542	0.0498624	1.49836	-0.185159	0	0	-0.259821	0.137189	0.235006	-0.298347	-0.930344	-0.080655	1.66024	0.388442	0	0	0.624428	-0.483899	0.825163	1.15029	0.563914	0	0
2.19	2.99753	1.23436	-1.33438	0.785289	1.63865	0.943096	-0.34727	0.126665	-0.100421	0	-0.375772	0	0	0.131245	-0.139156	0.0349423	1.48355	-0.174649	0	0	-0.262045	0.132189	0.244888	-0.2987	-0.928889	-0.0820641	1.66034	0.389061	0	0	0.624968	-0.484748	0.825763	1.1515	0.562687	0	0
2.2	3.00062	1.23338	-1.34781	0.786601	1.64705	0.943539	-0.360807	0.12463	-0.0989726	0	-0.370538	0	0	0.145462	-0.139766	0.0188713	1.46456	-0.164277	0	0	-0.264925	0.128211	0.255333	-0.29971	-0.928005	-0.0843484	1.66103	0.389612	0	0	0.625894	-0.48555	0.826796	1.15305	0.561499	0	0
2.21	3.00258	1.23125	-1.36012	0.787848	1.65544	0.943904	-0.375554	0.122946	-0.0957895	0	-0.36491	0	0	0.157815	-0.144217	-0.00277846	1.44131	-0.156698	0	0	-0.268987	0.124848	0.266463	-0.302294	-0.927703	-0.0882539	1.66262	0.389633	0	0	0.627654	-0.485854	0.828456	1.15458	0.560333	0	0
